<?xml version="1.0" encoding="UTF-8"?>
<svg id="Camada_1" data-name="Camada 1" xmlns="http://www.w3.org/2000/svg" viewBox="0 0 1080 1080">
  <defs>
    <style>
      .cls-1 {
        fill: #6d7743;
      }
    </style>
  </defs>
  <path class="cls-1" d="M539.78,334.92l-237.98,410.16h235.96l58.93-102.21,59.44,102.21h122.07l-238.42-410.16ZM491.95,643.65l-7.15.05c-4.15-.2-8.3-.82-12.39-1.87-5.37-1.37-10.65-3.48-15.7-6.37-30.19-17.25-40.68-55.72-23.42-85.92,17.25-30.19,55.72-40.68,85.91-23.43,5.05,2.89,9.55,6.36,13.46,10.3,3.03,3.05,5.71,6.37,8.01,9.9,0,0,0,0,0,0l3.32,5.73,52.71,90.82-104.75.77Z"/>
</svg>