<?xml version="1.0" encoding="UTF-8"?>
<svg id="Camada_1" data-name="Camada 1" xmlns="http://www.w3.org/2000/svg" viewBox="0 0 1080 1080">
  <defs>
    <style>
      .cls-1 {
        fill: #fff;
      }
    </style>
  </defs>
  <g>
    <path class="cls-1" d="M670.95,559.87c-.13,1.12-.31,2.32-.51,3.51h-123.87c-.11.84-.21,1.69-.3,2.61-3.96,35.07,14.93,62.07,48.95,62.07,16.22,0,34.51-5.64,52.19-16.92l2.76,7.63c-18.45,12.84-39.1,19.43-56.34,19.43-41.57,0-64.29-33.71-58.44-75.41,5.88-41.83,37.91-75.39,79.3-75.1,43.53,0,60.81,31.99,56.26,72.17ZM613.79,497.85c-32.41-.17-57.94,24.1-65.52,56.56l112.28-.15c2.16-32.45-12.28-56.41-46.76-56.41h0Z"/>
    <path class="cls-1" d="M698.76,596.25c-3.36,23.88,10.36,32.43,27.01,32.34,4.85-.02,9.47-.74,14.05-1.98l2.59,8.68c-6.27,1.92-12.71,2.87-18.62,2.9-21.58.11-39.82-12.15-35.54-42.6l22.62-160.92h10.6l-22.71,161.57Z"/>
    <path class="cls-1" d="M774.58,596.25c-3.35,23.88,10.36,32.43,27.01,32.34,10.07-.05,20.46-3.03,29.27-7.76l2.89,7.78c-10.44,6.1-22.88,9.52-34.14,9.58-21.58.11-39.82-12.15-35.54-42.6l12.49-88.87h-28.22l.98-7,26.79-1.96h1.72c2.81-21.02,5.62-42.05,8.43-63.07h10.18c-2.67,21.02-5.34,42.05-8.01,63.07h56.96l-1.26,8.97h-56.96l-12.58,89.53Z"/>
    <path class="cls-1" d="M959.78,638.2h-10.37c1.2-9.38,2.39-18.77,3.59-28.16-19.75,19.99-41.33,28.17-59.29,28.17-33.55,0-58.34-28.4-51.69-75.71,6.45-45.88,37.78-74.99,71.91-74.8,18.99,0,38.46,9.26,52.19,28.95l3.51-24.97h10.6c-6.82,48.84-13.64,97.67-20.45,146.51ZM964.58,527.63c-13.52-20.98-32.75-29.79-50.33-29.79-29.33,0-55.41,24.28-61.24,65.76-5.82,41.41,13.64,64.45,41.82,64.45,19.23,0,41.42-10.54,59.98-30.89l9.77-69.53Z"/>
    <path class="cls-1" d="M437.49,434.68h-62.13l-9.85,70.12c3.98,0,7.97,0,11.95.01l8.41-59.84h50.75c53.46,0,82.77,37.71,75.27,91.08-7.6,54.04-48.18,92.43-101.64,92.43h-50.18c-9.6.01-19.21.03-28.81.04v10.25c26.04,0,52.08,0,78.12,0,60.7,0,106.44-43.03,114.64-101.39,8.29-59.02-25.83-102.71-86.53-102.71Z"/>
  </g>
  <g>
    <path class="cls-1" d="M840.96,690.37v-30.7c0-.19.14-.32.32-.32h1.39c.14,0,.32.14.32.32v11.67c1.85-1.06,3.84-1.62,6.39-1.62,2.69,0,5.32.93,7.18,2.96,1.62,1.71,2.64,4.35,2.64,7.87,0,3.01-.88,5.28-2.31,7.04-2.27,2.64-5.93,3.75-9.68,3.75-1.85,0-4.86-.19-5.93-.51-.23-.05-.32-.19-.32-.46ZM843,689.35c1.25.19,3.01.32,4.35.32,2.92,0,6.02-.88,7.87-3.15,1.2-1.44,1.94-3.38,1.94-5.97,0-3.19-.93-5.42-2.36-6.85-1.57-1.57-3.66-2.27-5.74-2.27-2.55,0-4.4.65-6.07,1.67v16.25Z"/>
    <path class="cls-1" d="M865.64,673.29c-.28.14-.42.14-.51-.09l-.46-.88c-.09-.23,0-.37.19-.51,2.36-1.44,5-2.08,7.64-2.08,1.94,0,4.31.37,5.83,2.18,1.02,1.25,1.71,3.01,1.71,5.74v12.92c0,.19-.19.32-.32.32h-1.2c-.19,0-.32-.14-.32-.32v-.88h-.19c-2.22,1.25-4.12,1.67-6.62,1.67-1.81,0-3.8-.42-5.28-1.39-1.48-.93-2.45-2.41-2.45-4.58,0-2.92,1.81-4.54,4.44-5.51,3.06-1.06,6.99-1.3,9.91-1.44v-.79c0-2.27-.42-3.61-1.3-4.63-1.11-1.34-2.82-1.67-4.4-1.67-2.73,0-4.82.88-6.67,1.94ZM878,688.1v-8.15c-2.22,0-5.74.19-8.33.97-2.36.69-4.12,1.94-4.12,4.31,0,1.67.83,2.78,2.08,3.47,1.16.74,2.73,1.02,4.26,1.02,2.27,0,4.26-.51,6.11-1.62Z"/>
    <path class="cls-1" d="M887.07,659.35h1.39c.14,0,.32.14.32.32v30.88c0,.19-.19.32-.32.32h-1.39c-.19,0-.32-.14-.32-.32v-30.88c0-.19.14-.32.32-.32Z"/>
    <path class="cls-1" d="M896.52,673.29c-.28.14-.42.14-.51-.09l-.46-.88c-.09-.23,0-.37.19-.51,2.36-1.44,5-2.08,7.64-2.08,1.94,0,4.31.37,5.83,2.18,1.02,1.25,1.71,3.01,1.71,5.74v12.92c0,.19-.19.32-.32.32h-1.2c-.19,0-.32-.14-.32-.32v-.88h-.19c-2.22,1.25-4.12,1.67-6.62,1.67-1.81,0-3.8-.42-5.28-1.39-1.48-.93-2.45-2.41-2.45-4.58,0-2.92,1.81-4.54,4.44-5.51,3.06-1.06,6.99-1.3,9.91-1.44v-.79c0-2.27-.42-3.61-1.3-4.63-1.11-1.34-2.82-1.67-4.4-1.67-2.73,0-4.82.88-6.67,1.94ZM908.88,688.1v-8.15c-2.22,0-5.74.19-8.33.97-2.36.69-4.12,1.94-4.12,4.31,0,1.67.83,2.78,2.08,3.47,1.16.74,2.73,1.02,4.26,1.02,2.27,0,4.26-.51,6.11-1.62Z"/>
    <path class="cls-1" d="M919.71,674.26c1.44-2.82,4.17-4.54,7.82-4.54,2.55,0,4.54.6,5.97,1.81,1.67,1.48,2.5,3.89,2.5,7.18v11.85c0,.19-.14.32-.32.32h-1.34c-.14,0-.32-.14-.32-.32v-11.34c0-2.78-.56-4.81-1.99-6.11-1.11-1.02-2.64-1.53-4.82-1.53-2.69,0-4.86,1.16-6.25,3.66-.83,1.57-1.3,3.38-1.3,5.23v10.09c0,.19-.19.32-.32.32h-1.39c-.19,0-.32-.14-.32-.32v-20.09c0-.19.14-.32.32-.32h1.3c.19,0,.32.14.32.32v3.8h.14Z"/>
    <path class="cls-1" d="M957.81,688.29c.28-.14.42-.09.51.05l.51,1.02c.14.19.05.28-.14.42-1.71,1.11-4.03,1.57-6.3,1.57-3.33,0-6.11-1.06-8.06-3.01-1.81-1.9-2.92-4.54-2.92-7.82,0-2.78.93-5.19,2.41-6.94,2.08-2.45,5.23-3.8,8.57-3.8,2.27,0,4.49.6,6.2,1.71.19.09.28.23.14.46l-.56.97c-.05.19-.23.23-.46.09-1.71-1.06-3.47-1.53-5.32-1.53-2.69,0-5.19,1.11-6.9,3.15-1.25,1.48-2.04,3.52-2.04,5.88,0,2.78.93,5.05,2.45,6.62,1.57,1.62,3.84,2.55,6.53,2.55,1.85,0,3.66-.32,5.37-1.39Z"/>
    <path class="cls-1" d="M978.83,687.69c.32-.19.42-.14.56.05l.46.93c.09.19,0,.32-.19.46-1.71,1.06-4.63,2.22-7.87,2.22-3.43,0-6.3-1.3-8.24-3.57-1.62-1.85-2.55-4.44-2.55-7.5s.93-5.51,2.64-7.41c1.71-1.94,4.26-3.15,7.59-3.15s5.65,1.3,7.27,3.19c1.57,1.81,2.45,4.44,2.36,7.59,0,.28-.19.42-.46.42h-17.32c.14,2.36.79,4.21,1.99,5.69,1.53,1.94,3.94,3.1,6.81,3.1s5.28-.97,6.95-2.04ZM978.88,679.35c-.05-2.36-.83-4.26-1.99-5.56-1.25-1.39-3.24-2.45-5.65-2.45-2.78,0-4.86,1.06-6.2,2.73-1.16,1.34-1.81,3.29-1.94,5.28h15.79Z"/>
  </g>
  <path class="cls-1" d="M239.31,398.27l-139.54,240.5h138.36l34.55-59.93,34.85,59.93h71.58l-139.8-240.5ZM211.26,579.3l-4.19.03c-2.43-.12-4.87-.48-7.27-1.1-3.15-.8-6.25-2.04-9.21-3.73-17.7-10.12-23.85-32.67-13.74-50.38,10.12-17.7,32.67-23.85,50.38-13.74,2.96,1.69,5.6,3.73,7.89,6.04,1.78,1.79,3.35,3.73,4.7,5.81,0,0,0,0,0,0l1.95,3.36,30.91,53.25-61.42.45Z"/>
</svg>